:SAMPLES-PER-SECOND 30
:FULLY-SPECIFIED
:DEGREES
67
root  -8.98814 46.8488 -0.0743007 -129.292 87.5406 -130.692
RightUpLeg  -9.7181 4.07188 5.33763
RightLeg  31.0665 10.7122 0.673774
RightFoot  28.6408 -2.21867 5.78515
RightToes  1.74622e-010 -3.18055e-015 8.94531e-016
Spine  -4.30766 -1.47299 -1.13223
Spine1  15.3388 -2.26369 1.48613
HEad  -15.8603 -1.91046 4.02977
LeftShoulder1  0 -2.69403e-036 -1.28585e-037
LeftArm  14.9234 54.7673 -78.9584
LeftForeArm  -38.3564 -21.7387 6.9868
LeftHand  0.977766 7.05011 -3.93503
RightShoulder  -2.48481e-017 0 -8.08114e-019
RightArm  37.964 -51.1189 82.8391
RightForeArm  -50.0315 20.9915 -18.046
RightHand  1.21644 -10.8096 -4.03039
LeftUpLeg  -12.3075 -12.3617 -1.69933
LeftLeg  28.9444 -3.56227 3.81759
LeftFoot  17.5446 1.44229 -5.01353
LeftToes  -8.00353e-011 5.68142e-011 4.78552e-012
68
root  -7.59679 47.6554 -0.0814572 -116.946 88.0764 -118.264
RightUpLeg  -11.8859 2.92157 4.63135
RightLeg  30.383 9.04469 -0.400427
RightFoot  26.8401 -2.36337 6.46796
RightToes  1.74622e-010 -3.18055e-015 8.94531e-016
Spine  -1.83186 -1.1191 -1.24982
Spine1  14.4562 -1.87006 1.39302
HEad  -14.2274 -1.76921 3.92604
LeftShoulder1  0 -2.69403e-036 -1.28585e-037
LeftArm  15.5038 56.0409 -79.0668
LeftForeArm  -37.7232 -21.4225 6.2111
LeftHand  0.980718 7.11992 -2.44673
RightShoulder  -2.48481e-017 0 -8.08114e-019
RightArm  39.7387 -50.6385 82.3863
RightForeArm  -49.2009 20.9295 -17.2243
RightHand  1.16392 -10.4363 -3.97441
LeftUpLeg  -13.6977 -12.2668 -1.6442
LeftLeg  24.3233 -2.43731 3.4017
LeftFoot  14.6255 1.38508 -5.3679
LeftToes  -8.00353e-011 5.68142e-011 4.78552e-012
69
root  -6.16966 48.0737 -0.0987317 -97.8071 88.1768 -99.8741
RightUpLeg  -14.5546 1.85937 4.35989
RightLeg  27.9588 9.39933 -0.0869749
RightFoot  24.305 -2.09297 6.14819
RightToes  1.74622e-010 -3.18055e-015 8.94531e-016
Spine  -0.508683 -0.908643 -1.00668
Spine1  13.6642 -1.54404 1.20917
HEad  -13.3811 -1.18713 4.24458
LeftShoulder1  0 -2.69403e-036 -1.28585e-037
LeftArm  15.5091 57.2916 -78.9248
LeftForeArm  -35.3456 -20.949 5.41006
LeftHand  0.964851 6.94905 -3.34755
RightShoulder  -2.48481e-017 0 -8.08114e-019
RightArm  41.7357 -50.4643 81.8774
RightForeArm  -50.4423 20.9859 -17.0127
RightHand  1.17895 -10.6833 -3.49051
LeftUpLeg  -15.6621 -11.5004 -1.23524
LeftLeg  19.3026 -1.63251 2.78734
LeftFoot  11.5423 1.15199 -5.04772
LeftToes  -8.00353e-011 5.68142e-011 4.78552e-012
70
root  -4.73269 48.0734 -0.114473 -89.9052 87.9892 -92.5619
RightUpLeg  -16.4393 0.981289 4.39427
RightLeg  23.9473 10.2932 0.484144
RightFoot  21.8121 -1.72975 5.46918
RightToes  1.74622e-010 -3.18055e-015 8.94531e-016
Spine  0.618135 -1.008 -0.729447
Spine1  13.2517 -1.51709 1.07581
HEad  -13.4619 -0.344469 4.84876
LeftShoulder1  0 -2.69403e-036 -1.28585e-037
LeftArm  15.7271 58.6239 -78.8875
LeftForeArm  -34.684 -21.0066 5.62791
LeftHand  0.955802 6.79914 -4.59943
RightShoulder  -2.48481e-017 0 -8.08114e-019
RightArm  42.4024 -50.4577 81.9221
RightForeArm  -51.6888 21.0461 -17.1686
RightHand  1.22114 -11.1329 -3.09555
LeftUpLeg  -16.8176 -6.66962 -2.0473
LeftLeg  13.6406 -5.19841 2.46912
LeftFoot  11.6129 1.27438 -5.58257
LeftToes  -8.00353e-011 5.68142e-011 4.78552e-012
71
root  -3.25967 47.625 -0.11995 -89.6197 87.7172 -92.5445
RightUpLeg  -17.5549 0.928915 4.47126
RightLeg  19.3822 10.3144 0.538781
RightFoot  19.9297 -1.78668 5.99324
RightToes  1.74622e-010 -3.18055e-015 8.94531e-016
Spine  1.60418 -1.23157 -0.677496
Spine1  13.1901 -1.79219 1.49164
HEad  -13.8869 0.398629 5.24494
LeftShoulder1  0 -2.69403e-036 -1.28585e-037
LeftArm  16.9634 59.8835 -78.9798
LeftForeArm  -36.8704 -21.7227 7.00784
LeftHand  0.954798 6.75057 -5.20462
RightShoulder  -2.48481e-017 0 -8.08114e-019
RightArm  41.9845 -50.4729 82.2685
RightForeArm  -51.655 21.0492 -17.3573
RightHand  1.22346 -11.1394 -3.13123
LeftUpLeg  -17.402 -3.83149 -2.39571
LeftLeg  8.7097 -8.10073 1.81678
LeftFoot  14.5286 1.84333 -7.22554
LeftToes  -8.00353e-011 5.68142e-011 4.78552e-012
72
root  -1.70952 46.7102 -0.11043 -91.5533 87.369 -94.8608
RightUpLeg  -18.7712 1.44562 4.55413
RightLeg  15.8006 9.93714 0.468587
RightFoot  18.9787 -2.09143 7.2373
RightToes  1.74622e-010 -3.18055e-015 8.94531e-016
Spine  1.71345 -1.39741 -0.697998
Spine1  13.5502 -2.16484 2.25774
HEad  -14.6407 0.936152 5.27763
LeftShoulder1  0 -2.69403e-036 -1.28585e-037
LeftArm  18.4347 60.49 -78.7397
LeftForeArm  -39.6342 -22.3958 8.38561
LeftHand  0.962033 6.81508 -5.44897
RightShoulder  -2.48481e-017 0 -8.08114e-019
RightArm  40.6537 -50.3688 82.7554
RightForeArm  -50.7478 20.9889 -16.9367
RightHand  1.21265 -10.9774 -3.37447
LeftUpLeg  -18.2842 -3.46551 -2.14135
LeftLeg  6.27695 -9.36682 1.32727
LeftFoot  17.0823 2.2983 -8.22939
LeftToes  -8.00353e-011 5.68142e-011 4.78552e-012
73
root  -0.0670238 45.2939 -0.0856459 -96.2132 86.8102 -99.7816
RightUpLeg  -19.7731 2.00373 4.83526
RightLeg  13.6835 9.41203 0.605617
RightFoot  21.1822 -2.25292 7.26647
RightToes  1.74622e-010 -3.18055e-015 8.94531e-016
Spine  0.710961 -1.49242 -0.388095
Spine1  14.8786 -2.48566 2.80909
HEad  -15.8819 1.19952 5.12781
LeftShoulder1  0 -2.69403e-036 -1.28585e-037
LeftArm  20.9557 60.0088 -78.217
LeftForeArm  -42.9949 -23.0618 9.79377
LeftHand  0.975287 6.99141 -4.82829
RightShoulder  -2.48481e-017 0 -8.08114e-019
RightArm  38.6 -49.9644 83.5535
RightForeArm  -49.5606 20.8981 -15.9054
RightHand  1.20769 -10.9867 -3.22216
LeftUpLeg  -19.2628 -3.88509 -1.61751
LeftLeg  6.9475 -8.87105 1.35351
LeftFoot  19.4213 2.02357 -6.66086
LeftToes  -8.00353e-011 5.68142e-011 4.78552e-012
74
root  1.62836 43.3727 -0.0519173 -101.215 85.8674 -103.989
RightUpLeg  -19.7321 2.77585 5.69979
RightLeg  14.3028 9.041 0.448288
RightFoot  25.162 -2.08542 5.97786
RightToes  1.74622e-010 -3.18055e-015 8.94531e-016
Spine  -0.45451 -1.50152 0.410353
Spine1  17.5133 -2.71822 3.03787
HEad  -17.5517 1.09622 4.86879
LeftShoulder1  0 -2.69403e-036 -1.28585e-037
LeftArm  25.3947 58.1066 -77.9614
LeftForeArm  -46.8113 -23.8893 11.6964
LeftHand  0.950494 6.82733 -3.11868
RightShoulder  -2.48481e-017 0 -8.08114e-019
RightArm  37.5385 -48.818 84.4159
RightForeArm  -48.6743 20.8375 -15.0931
RightHand  1.13929 -10.7275 -2.29866
LeftUpLeg  -19.9862 -7.66449 0.402334
LeftLeg  11.7354 -4.69027 1.97781
LeftFoot  21.6144 1.28447 -3.8593
LeftToes  -8.00353e-011 5.68142e-011 4.78552e-012
75
root  3.27107 41.1021 -0.0242726 -104.836 84.7288 -105.68
RightUpLeg  -19.7224 4.35783 6.83241
RightLeg  21.1878 9.19758 0.031291
RightFoot  22.1924 -1.57252 4.91319
RightToes  1.74622e-010 -3.18055e-015 8.94531e-016
Spine  -0.656822 -1.50548 1.35022
Spine1  20.5681 -2.94408 3.21422
HEad  -19.6744 0.853512 4.57386
LeftShoulder1  0 -2.69403e-036 -1.28585e-037
LeftArm  28.4282 54.19 -78.0521
LeftForeArm  -46.6346 -23.9468 11.6926
LeftHand  0.867133 6.15506 -2.27577
RightShoulder  -2.48481e-017 0 -8.08114e-019
RightArm  37.6496 -46.3646 84.866
RightForeArm  -47.6164 20.773 -14.0718
RightHand  1.0288 -10.1183 -1.14451
LeftUpLeg  -21.3946 -13.3893 3.22025
LeftLeg  22.068 -1.54589 3.29216
LeftFoot  17.9791 0.877212 -2.9266
LeftToes  -8.00353e-011 5.68142e-011 4.78552e-012
76
root  4.8061 38.6175 0.00951698 -111.178 84.1977 -110.473
RightUpLeg  -21.6008 4.26537 7.41197
RightLeg  34.9591 10.5693 0.549269
RightFoot  6.85523 -0.487622 2.75478
RightToes  1.74622e-010 -3.18055e-015 8.94531e-016
Spine  0.188165 -1.72318 1.17525
Spine1  22.0712 -3.32574 3.37395
HEad  -22.2694 0.774831 4.56549
LeftShoulder1  0 -2.69403e-036 -1.28585e-037
LeftArm  24.1847 48.1247 -78.2028
LeftForeArm  -38.7213 -21.8535 6.4025
LeftHand  0.829266 5.71119 -3.19308
RightShoulder  -2.48481e-017 0 -8.08114e-019
RightArm  35.7475 -42.7808 85.0336
RightForeArm  -44.5234 20.4541 -11.1852
RightHand  1.03419 -10.2264 -0.95239
LeftUpLeg  -24.0869 -14.8555 3.42082
LeftLeg  36.3346 -4.94303 4.50551
LeftFoot  4.0673 0.502108 -3.18909
LeftToes  -8.00353e-011 5.68142e-011 4.78552e-012
77
root  6.2313 36.1764 0.0609954 -124.202 84.3928 -123.932
RightUpLeg  -25.3601 1.7929 6.90018
RightLeg  49.7221 11.3876 1.44307
RightFoot  -12.4395 0.0124195 -1.39873
RightToes  1.74622e-010 -3.18055e-015 8.94531e-016
Spine  1.49139 -2.10664 -0.594809
Spine1  20.5798 -3.89162 3.66673
HEad  -25.0315 0.722341 5.00856
LeftShoulder1  0 -2.69403e-036 -1.28585e-037
LeftArm  12.1693 41.5722 -78.3501
LeftForeArm  -27.1572 -16.6058 -1.14138
LeftHand  0.877127 6.17481 -2.95912
RightShoulder  -2.48481e-017 0 -8.08114e-019
RightArm  30.5359 -39.5094 85.217
RightForeArm  -39.0307 19.5241 -7.05088
RightHand  1.23194 -11.5409 -2.19101
LeftUpLeg  -28.1163 -15.0526 2.10138
LeftLeg  50.2461 -7.33077 5.42024
LeftFoot  -13.4761 -0.0415383 -2.35541
LeftToes  -8.00353e-011 5.68142e-011 4.78552e-012
